<?xml version="1.0" standalone="no"?>
<!DOCTYPE svg PUBLIC "-//W3C//DTD SVG 20010904//EN"
 "http://www.w3.org/TR/2001/REC-SVG-20010904/DTD/svg10.dtd">
<svg version="1.0" xmlns="http://www.w3.org/2000/svg"
 width="900.000000pt" height="520.000000pt" viewBox="0 0 900.000000 520.000000"
 preserveAspectRatio="xMidYMid meet">

<g transform="translate(0.000000,520.000000) scale(0.100000,-0.100000)"
fill="#ffffff" stroke="none">
<path d="M4770 5076 c-19 -8 -318 -201 -665 -431 -346 -230 -722 -479 -835
-554 l-205 -136 -440 -5 -440 -5 -42 -29 c-27 -18 -51 -46 -68 -79 l-25 -51 0
-1146 0 -1146 25 -51 c16 -32 41 -61 67 -79 l41 -29 441 -5 441 -5 833 -552
c458 -304 853 -559 878 -568 54 -18 80 -19 125 -3 52 18 96 55 118 102 21 42
21 44 21 2336 0 2292 0 2294 -21 2336 -44 92 -153 135 -249 100z m-137 -2432
c-1 -1021 -3 -1858 -5 -1860 -3 -2 -1128 739 -1280 844 l-48 33 0 979 0 979
78 53 c184 125 1247 828 1252 828 3 0 4 -835 3 -1856z m-1733 -4 l0 -900 -220
0 -220 0 0 900 0 900 220 0 220 0 0 -900z"/>
<path d="M6185 4035 c-55 -19 -110 -83 -125 -145 -19 -79 4 -137 94 -238 425
-475 507 -1152 210 -1721 -63 -120 -113 -192 -218 -313 -82 -96 -102 -143 -92
-216 16 -116 141 -185 267 -149 45 13 68 28 107 69 267 279 442 647 503 1053
18 116 18 425 0 535 -54 340 -169 622 -359 875 -176 238 -263 293 -387 250z"/>
<path d="M5565 3399 c-71 -27 -123 -88 -139 -165 -12 -56 12 -120 75 -197 201
-246 201 -549 -2 -796 -81 -99 -97 -166 -60 -247 40 -89 148 -133 254 -103
113 31 276 273 333 494 86 339 -3 696 -238 943 -22 24 -54 50 -70 58 -39 20
-116 26 -153 13z"/>
</g>
</svg>
