<?xml version="1.0" standalone="no"?>
<!DOCTYPE svg PUBLIC "-//W3C//DTD SVG 20010904//EN"
 "http://www.w3.org/TR/2001/REC-SVG-20010904/DTD/svg10.dtd">
<svg version="1.0" xmlns="http://www.w3.org/2000/svg"
 width="920.000000pt" height="540.000000pt" viewBox="0 0 920.000000 540.000000"
 preserveAspectRatio="xMidYMid meet">

<g transform="translate(0.000000,540.000000) scale(0.100000,-0.100000)"
fill="#ffffff" stroke="none">
<path d="M4145 4224 l-780 -514 -351 0 c-379 0 -400 -2 -509 -58 -64 -32 -175
-143 -207 -207 -59 -115 -58 -108 -58 -745 0 -637 -1 -630 58 -745 32 -64 143
-175 207 -207 109 -56 130 -58 509 -58 l351 0 784 -515 c431 -283 785 -515
787 -515 2 0 4 918 4 2040 0 1122 -3 2040 -7 2039 -5 0 -359 -232 -788 -515z
m455 -1525 c0 -783 -4 -1409 -9 -1407 -4 2 -231 149 -504 328 l-497 325 0 755
0 755 498 327 c273 179 500 327 505 327 4 1 7 -634 7 -1410z m-1350 1 l0 -670
-276 0 c-261 0 -278 1 -313 21 -20 11 -45 32 -56 47 -19 26 -20 45 -22 592
l-3 565 23 39 c42 73 55 76 369 76 l278 0 0 -670z"/>
<path d="M5397 3413 l-117 -118 297 -297 298 -298 -298 -298 -297 -297 120
-121 121 -120 297 298 296 298 301 -300 300 -300 120 120 120 120 -300 300
-300 300 300 300 300 300 -115 115 c-63 63 -119 115 -125 115 -6 0 -143 -133
-305 -295 l-295 -295 -295 295 c-162 162 -297 295 -300 295 -3 0 -58 -53 -123
-117z"/>
</g>
</svg>
